<svg xmlns="http://www.w3.org/2000/svg" width="40" height="40" viewBox="0 0 40 40">
  <path id="calculate_FILL0_wght400_GRAD0_opsz48" d="M16.778,40h2.778V35.111h4.889V32.333H19.556V27.444H16.778v4.889H11.889v2.778h4.889Zm11.944-1.944H39.889V35.333H28.722Zm0-5.944H39.889V29.333H28.722Zm2.056-9.056,3.389-3.389,3.389,3.389,2-2-3.389-3.389,3.389-3.389-2-2-3.389,3.389-3.389-3.389-2,2,3.389,3.389-3.389,3.389Zm-18.056-4H23.611V16.278H12.722ZM9.333,46A3.2,3.2,0,0,1,7,45a3.2,3.2,0,0,1-1-2.333V9.333A3.2,3.2,0,0,1,7,7,3.2,3.2,0,0,1,9.333,6H42.667A3.2,3.2,0,0,1,45,7a3.2,3.2,0,0,1,1,2.333V42.667A3.418,3.418,0,0,1,42.667,46Zm0-3.333H42.667V9.333H9.333Zm0-33.333v0Z" transform="translate(-6 -6)" fill="#f9f9f9"/>
</svg>
