<svg xmlns="http://www.w3.org/2000/svg" width="40" height="33" viewBox="0 0 40 33">
  <path id="supervisor_account_FILL0_wght400_GRAD0_opsz48" d="M34.2,30.206a4.4,4.4,0,0,1-3.325-1.461,5.229,5.229,0,0,1,0-7.068,4.513,4.513,0,0,1,6.65,0,5.229,5.229,0,0,1,0,7.068A4.4,4.4,0,0,1,34.2,30.206ZM24.4,41.95V39.24a4.773,4.773,0,0,1,.55-2.365,3.763,3.763,0,0,1,1.55-1.514,15.942,15.942,0,0,1,3.75-1.488,16.121,16.121,0,0,1,3.95-.478,17.022,17.022,0,0,1,3.95.452,14.037,14.037,0,0,1,3.75,1.514,3.408,3.408,0,0,1,1.55,1.488A4.927,4.927,0,0,1,44,39.24v2.71ZM20,24.892a7.083,7.083,0,0,1-5.4-2.232,8.038,8.038,0,0,1-2.1-5.739,8.038,8.038,0,0,1,2.1-5.739A7.083,7.083,0,0,1,20,8.95a7.083,7.083,0,0,1,5.4,2.232,8.038,8.038,0,0,1,2.1,5.739,8.038,8.038,0,0,1-2.1,5.739A7.083,7.083,0,0,1,20,24.892ZM4,41.95v-5a6.671,6.671,0,0,1,.85-3.321A5.508,5.508,0,0,1,7.4,31.322a36.118,36.118,0,0,1,6.425-2.391,24.518,24.518,0,0,1,6.175-.8,22.737,22.737,0,0,1,2.85.159q1.25.159,2.7.478L23,31.481a11.134,11.134,0,0,0-1.4-.133q-.75-.027-1.6-.027a25.063,25.063,0,0,0-5.55.611A24.439,24.439,0,0,0,8.6,34.192a2.878,2.878,0,0,0-1.15,1.169A3.218,3.218,0,0,0,7,36.955v1.807H21.4V41.95ZM21.4,38.762ZM20,21.7a4.238,4.238,0,0,0,3.225-1.355A4.8,4.8,0,0,0,24.5,16.921a4.8,4.8,0,0,0-1.275-3.428A4.238,4.238,0,0,0,20,12.138a4.238,4.238,0,0,0-3.225,1.355A4.8,4.8,0,0,0,15.5,16.921a4.8,4.8,0,0,0,1.275,3.428A4.238,4.238,0,0,0,20,21.7ZM20,16.921Z" transform="translate(-4 -8.95)" fill="#f9f9f9"/>
</svg>
