<svg xmlns="http://www.w3.org/2000/svg" width="32" height="40" viewBox="0 0 32 40">
  <path id="request_page_FILL0_wght400_GRAD0_opsz48" d="M22.5,36h3V34h3A1.454,1.454,0,0,0,30,32.5V26a1.454,1.454,0,0,0-1.5-1.5H21V21h9V18H25.5V16h-3v2h-3A1.454,1.454,0,0,0,18,19.5V26a1.454,1.454,0,0,0,1.5,1.5H27V31H18v3h4.5ZM11,44a2.878,2.878,0,0,1-2.1-.9A2.878,2.878,0,0,1,8,41V7a2.878,2.878,0,0,1,.9-2.1A2.878,2.878,0,0,1,11,4H28.05L40,15.95V41a3.076,3.076,0,0,1-3,3Zm0-3H37V17.3L26.7,7H11Zm0,0v0Z" transform="translate(-8 -4)" fill="#f9f9f9"/>
</svg>
