<svg xmlns="http://www.w3.org/2000/svg" width="44.05" height="40" viewBox="0 0 44.05 40">
  <path id="add_home_work_FILL0_wght400_GRAD0_opsz48" d="M9.9,35V24.95H21.2v0H9.9ZM32.05,16.75ZM2,38V18.5L15.55,8.8l13.5,9.7v4.35A12.112,12.112,0,0,0,27.4,24.4a12.538,12.538,0,0,0-1.35,1.85v-6.2L15.55,12.5,5,20.05V35H9.9V24.95H21.2V35h3.3a11.733,11.733,0,0,0,.4,1.55A11.054,11.054,0,0,0,25.5,38H18.2V27.95H12.9V38ZM46,2V24.55a12.109,12.109,0,0,0-1.4-1.375A16.482,16.482,0,0,0,43,22V5H23.25v5.6l-3-2.1V2ZM34.85,12.85h3v-3h-3ZM36.65,42a9.432,9.432,0,0,1-9.4-9.35A9.142,9.142,0,0,1,30,25.975a9.326,9.326,0,0,1,13.275,0A9.1,9.1,0,0,1,46.05,32.65,9.476,9.476,0,0,1,36.65,42Zm-.75-3h1.65V33.5h5.5V31.85h-5.5v-5.5H35.9v5.5H30.4V33.5h5.5Z" transform="translate(-2 -2)" fill="#f9f9f9"/>
</svg>
